<?xml version="1.0" encoding="UTF-8" standalone="no"?>
<svg
   version="1.0"
   width="256.000000pt"
   height="256.000000pt"
   viewBox="0 0 256.000000 256.000000"
   preserveAspectRatio="xMidYMid meet"
   id="svg28"
   sodipodi:docname="logo-1.svg"
   inkscape:version="1.2 (dc2aedaf03, 2022-05-15)"
   xmlns:inkscape="http://www.inkscape.org/namespaces/inkscape"
   xmlns:sodipodi="http://sodipodi.sourceforge.net/DTD/sodipodi-0.dtd"
   xmlns="http://www.w3.org/2000/svg"
   xmlns:svg="http://www.w3.org/2000/svg">
  <defs
     id="defs32" />
  <sodipodi:namedview
     id="namedview30"
     pagecolor="#7e7e7e"
     bordercolor="#000000"
     borderopacity="0.25"
     inkscape:showpageshadow="2"
     inkscape:pageopacity="0"
     inkscape:pagecheckerboard="0"
     inkscape:deskcolor="#d1d1d1"
     inkscape:document-units="pt"
     showgrid="false"
     inkscape:zoom="1.6552734"
     inkscape:cx="170.66667"
     inkscape:cy="170.96873"
     inkscape:window-width="1301"
     inkscape:window-height="745"
     inkscape:window-x="-8"
     inkscape:window-y="-8"
     inkscape:window-maximized="1"
     inkscape:current-layer="svg28" />
  <metadata
     id="metadata22">
Created by potrace 1.16, written by Peter Selinger 2001-2019
</metadata>
  <path
     id="path413"
     style="fill:#ffffff;stroke-width:0.60413"
     d="M 310.60938 12.689453 C 310.1181 12.690024 309.00863 13.022869 307.4707 13.585938 C 306.59409 13.876659 305.24824 14.482113 304.15039 14.921875 C 303.54881 15.171406 303.16631 15.303146 302.47656 15.599609 C 301.67644 15.939604 301.15107 16.096815 300.25195 16.501953 C 296.09971 18.372943 290.51319 20.993436 283.91797 24.140625 C 281.76342 25.164656 278.66678 26.680386 276.22461 27.855469 C 271.27428 30.242689 265.64849 32.983675 259.60156 35.943359 C 244.25724 43.452868 226.41923 52.262482 202.68555 64.126953 C 185.85373 72.541177 177.51159 76.807689 167.89258 81.701172 C 163.62592 83.871531 155.58701 87.873684 152.46094 89.496094 C 152.45652 89.498388 152.44387 89.505519 152.43945 89.507813 C 147.36013 92.144169 143.67167 94.115268 141.01758 95.609375 C 141.01704 95.60968 141.01617 95.611023 141.01563 95.611328 C 138.36606 97.102977 136.73795 98.120362 135.77734 98.851563 C 133.62301 100.49142 133.22242 102.32871 134.87109 103.00781 C 135.45256 103.24733 142.14806 103.67519 149.75 103.95703 C 157.33503 104.23824 163.61706 104.56941 163.76953 104.69531 C 163.8635 104.83393 159.5921 109.6454 154.24219 115.42578 C 148.87911 121.22038 137.26365 133.85532 128.42969 143.50391 C 119.59573 153.15251 98.921676 175.71658 82.488281 193.64648 C 66.054891 211.57638 47.094078 232.27719 40.351563 239.64844 L 28.091797 253.05078 L 28.091797 253.10352 L 28.091797 284.51758 L 28.091797 284.54297 L 28.091797 315.98242 L 29.753906 315.58984 C 31.038171 315.28613 32.466557 314.49413 35.423828 311.87891 C 36.097234 311.28893 36.76106 310.71467 37.617188 309.90625 C 37.826832 309.70645 38.119103 309.41214 38.341797 309.19727 C 39.771412 307.82934 41.708501 305.88604 43.732422 303.83398 C 44.089518 303.47021 44.779925 302.74104 45.158203 302.35352 C 50.007851 297.40414 57.193412 289.86182 66.410156 280.07813 C 73.06755 273.01122 79.773784 265.88571 89.455078 255.54688 C 93.555298 251.16818 102.1209 242.01914 107.48633 236.28906 C 107.50768 236.26626 107.53722 236.23571 107.55859 236.21289 C 107.82811 235.92506 107.74294 236.01556 108.01172 235.72852 C 131.73486 210.39311 161.71416 178.37802 187.28906 151.0625 C 218.85042 117.3531 257.15662 76.438021 272.41602 60.140625 C 274.75249 57.645212 275.03554 57.303442 277.0957 55.099609 C 303.32315 27.025157 304.65859 25.458758 307.23438 22.375 C 307.4635 22.100692 307.55689 21.955334 307.77148 21.695313 C 308.77247 20.508446 309.40274 19.665813 310.02344 18.84375 C 310.38789 18.364446 310.87825 17.766459 311.16602 17.355469 C 311.22701 17.266254 311.36635 17.105788 311.42383 17.019531 C 311.53243 16.856545 311.57545 16.743532 311.67188 16.589844 C 311.96523 16.13491 312.19903 15.725321 312.37891 15.363281 C 312.42036 15.277391 312.4681 15.187122 312.50391 15.105469 C 312.70913 14.648164 312.82767 14.256289 312.83594 13.945313 C 312.83822 13.914209 312.85092 13.8756 312.85156 13.845703 C 312.84378 13.621367 312.76213 13.447212 312.64648 13.294922 C 312.51506 13.081387 312.27975 12.941729 311.96289 12.861328 C 311.87704 12.835993 311.80707 12.799917 311.70898 12.78125 C 311.59543 12.768135 311.48482 12.752536 311.35352 12.751953 C 311.1164 12.725781 310.90139 12.689117 310.60938 12.689453 z "
     transform="scale(0.75)" />
  <path
     id="path418"
     style="fill:#ffffff;stroke-width:0.60413"
     d="M 166.72461 180.63477 C 166.66211 180.63477 166.50931 180.73994 166.4082 180.78516 C 164.6115 181.54349 158.0382 187.93378 149.64453 197.13477 C 149.21758 197.60278 148.67932 198.21338 148.23047 198.70898 C 139.97143 207.6328 130.95251 217.90113 125.50781 224.87891 C 125.26408 225.18496 124.74882 225.78808 124.57617 226.01563 L 122.91797 228.20117 L 125.86328 235.07813 C 126.98182 237.68878 128.58364 241.31397 130.54102 245.68164 C 131.71786 248.31317 133.27064 251.71944 134.72266 254.91992 C 135.53722 256.71468 136.20197 258.1988 137.09766 260.16211 C 138.61919 263.49599 141.12048 268.87183 142.91406 272.77148 C 146.91993 281.48859 150.72759 289.80102 155.72656 300.55469 L 168.64453 328.34375 L 174.03516 328.68359 L 174.04883 328.68359 C 175.53735 328.77672 181.03506 328.87498 188.70898 328.95703 C 196.38826 329.03917 206.24106 329.10531 216.41406 329.13672 L 253.40234 329.25 L 253.0332 327.28711 C 252.95274 326.85833 252.53085 325.8614 251.80469 324.35938 C 250.35533 321.36147 247.67373 316.318 243.98047 309.62695 C 243.97015 309.60825 243.95565 309.58318 243.94531 309.56445 C 242.13625 306.28635 240.07179 302.5922 237.81055 298.58008 C 237.80429 298.56898 237.79533 298.55212 237.78906 298.54102 C 228.4803 282.0255 215.59158 259.73351 201.00391 235.00586 C 196.52438 227.4126 192.94704 221.42584 189.43555 215.55859 C 188.48732 213.97423 187.19359 211.77062 186.3125 210.30664 C 186.29797 210.28249 186.28991 210.27217 186.27539 210.24805 C 184.21919 206.8318 182.86158 204.67339 181.1582 201.89258 C 179.40119 199.02414 177.31219 195.55761 175.90625 193.32617 C 175.42264 192.5588 175.05822 192.00779 174.61523 191.31445 C 173.77867 190.0046 172.91372 188.64443 172.2168 187.58984 C 172.21491 187.58699 172.21478 187.58489 172.21289 187.58203 C 172.18678 187.54256 172.1724 187.52349 172.14648 187.48438 C 169.07238 182.84033 167.32839 180.63477 166.76172 180.63477 C 166.7576 180.63477 166.74643 180.64243 166.74219 180.64258 C 166.73769 180.64234 166.72898 180.63477 166.72461 180.63477 z "
     transform="scale(0.75)" />
  <path
     id="path423"
     style="fill:#ffffff;stroke-width:0.60413"
     d="M 94.941406 258.06641 C 94.523411 257.98604 92.56979 259.61216 88.876953 263.10547 C 81.759621 269.74111 69.613956 281.96616 57.974609 294.03711 C 49.444646 302.81687 42.502358 310.17576 37.605469 315.66211 C 32.799428 320.958 29.38184 324.94747 28.652344 326.31055 C 28.349875 326.87572 28.302836 327.28946 28.654297 327.60547 C 28.664942 327.62388 28.666994 327.65136 28.681641 327.66602 C 28.730883 327.71528 28.832741 327.76482 28.970703 327.81641 C 28.972284 327.817 28.974971 327.81777 28.976563 327.81836 C 29.764316 328.2027 31.502214 328.42004 34.513672 328.61914 C 34.854026 328.64445 35.17384 328.67731 35.523438 328.69727 C 38.065455 328.84237 47.255515 328.99209 58.105469 329.08203 C 58.108964 329.08206 58.111739 329.082 58.115234 329.08203 C 61.729058 329.11197 65.527177 329.13645 69.324219 329.15039 L 96.962891 329.25 L 96.927734 296.17383 C 96.908583 277.98199 96.699953 262.01496 96.464844 260.68945 C 96.370156 260.15562 96.243945 259.73182 96.101563 259.35938 C 95.883834 258.71517 95.607271 258.33426 95.232422 258.16016 C 95.204745 258.1473 95.173284 258.14157 95.144531 258.13086 C 95.089704 258.10984 95.036074 258.0853 94.978516 258.07422 C 94.976604 258.07385 94.972692 258.07646 94.970703 258.07617 C 94.960421 258.07395 94.951816 258.06841 94.941406 258.06641 z "
     transform="scale(0.75)" />
  <path
     id="path428"
     style="fill:none;stroke-width:0.60413"
     d="M 28.091797 104.51367 L 28.130859 159.33984 C 28.164232 206.11938 28.500474 230.94179 29.199219 237.42969 C 29.249242 237.89416 29.299736 238.2671 29.353516 238.54492 C 29.377681 238.66976 29.402804 238.70934 29.427734 238.79688 C 29.457602 238.90185 29.486611 239.04755 29.517578 239.09766 C 29.51857 239.09926 29.520487 239.09996 29.521484 239.10156 C 29.52167 239.10187 29.521298 239.10321 29.521484 239.10352 C 29.70694 239.40359 29.882048 239.59633 30.09375 239.69141 C 30.224667 239.77712 30.350859 239.83984 30.453125 239.83984 C 31.026941 239.83984 32.210926 239.08629 34.166016 237.44531 C 38.389877 234.13393 48.477059 224.02705 73.386719 198.1543 L 75.402344 196.06055 C 75.526221 195.9319 75.590315 195.86762 75.714844 195.73828 L 96.945313 173.6875 L 96.955078 139.10156 L 96.962891 104.51367 L 62.527344 104.51367 L 28.091797 104.51367 z "
     transform="scale(0.75)" />
  <path
     style="fill:none;stroke-width:0.60413"
     d="M 0.3020649,170.66667 V 0 H 170.66667 341.03127 V 170.66667 341.33333 H 170.66667 0.3020649 Z M 97.447072,294.16215 c -0.174436,-34.17637 -0.230632,-35.72813 -1.322857,-36.52644 -0.861918,-0.62998 -1.452479,-0.67387 -2.416519,-0.17959 -1.821192,0.93374 -38.220386,37.58116 -49.106931,49.44182 -9.139904,9.95772 -17.121078,19.24047 -17.103608,19.89287 0.0051,0.19001 0.266645,0.75326 0.581238,1.25167 0.783874,1.24188 9.025245,1.57266 42.484901,1.70518 l 27.065951,0.10721 z m 156.250138,33.42723 c -0.49729,-2.85854 -4.77606,-11.02057 -17.1811,-32.77404 -30.04465,-52.68625 -60.22054,-103.37096 -66.45256,-111.61654 -1.18809,-1.57197 -2.59784,-2.94241 -3.13278,-3.04543 -1.62534,-0.31301 -6.96982,4.56168 -16.80452,15.32735 -11.24273,12.307 -24.36855,27.50014 -26.41985,30.58099 l -1.48586,2.23162 3.31576,7.73653 c 4.65987,10.87268 12.64531,28.39097 28.72412,63.01439 l 13.88734,29.90442 11.68069,0.32184 c 6.42438,0.17702 25.76169,0.38091 42.97178,0.4531 l 31.2911,0.13126 z M 31.277972,315.96813 c 2.515726,-0.0194 12.889986,-10.92947 172.345298,-181.24719 31.57462,-33.72554 65.94025,-70.426427 76.36807,-81.557518 30.01821,-32.042707 34.76486,-37.68188 33.46503,-39.757552 -1.1153,-1.781003 -4.42702,-1.544264 -9.60834,0.686856 -26.19228,11.278607 -154.61608,75.22236 -166.55953,82.931999 -3.49883,2.258533 -4.07788,2.882225 -4.07788,4.392255 0,1.108 0.39163,1.92076 1.05723,2.19408 0.58147,0.23877 7.17404,0.65705 14.65014,0.92949 7.47611,0.27245 13.68196,0.51397 13.79078,0.5367 0.10882,0.0227 -4.67665,5.27461 -10.63439,11.67083 -5.95774,6.39623 -17.04166,18.42596 -24.63094,26.73275 -7.58928,8.30678 -21.17845,23.12306 -30.198153,32.92507 -9.019694,9.80201 -28.404987,30.96915 -43.078416,47.0381 l -26.678965,29.21628 v 32.02233 32.02232 l 1.359292,-0.36427 c 0.74761,-0.20035 1.841459,-0.36799 2.430774,-0.37253 z m 3.556274,-78.059 c 4.227514,-3.32145 11.179792,-10.30778 39.355351,-39.54811 l 23.377365,-24.2608 V 139.00527 103.91032 H 62.527434 27.487906 l 0.05697,54.82478 c 0.03133,30.15363 0.236227,60.42526 0.455322,67.2703 0.508562,15.88873 0.898186,16.56738 6.83405,11.90373 z"
     id="path433"
     transform="scale(0.75)" />
  <path
     id="path435"
     style="fill:none;stroke-width:0.60413"
     d="M 0.30273438 0 L 0.30273438 170.66602 L 0.30273438 341.33398 L 170.66602 341.33398 L 341.03125 341.33398 L 341.03125 170.66602 L 341.03125 0 L 170.66602 0 L 0.30273438 0 z M 310.17773 12.244141 C 311.79274 12.128691 312.89938 12.515749 313.45703 13.40625 C 314.75686 15.48192 310.01037 21.121388 279.99219 53.164063 C 269.56438 64.295142 235.19764 100.9952 203.62305 134.7207 C 44.167894 305.03825 33.793067 315.94935 31.277344 315.96875 C 30.688029 315.97329 29.595266 316.13949 28.847656 316.33984 L 27.488281 316.70508 L 27.488281 284.68164 L 27.488281 252.66016 L 54.166016 223.44336 C 68.83943 207.37443 88.226409 186.20825 97.246094 176.40625 C 106.26579 166.60425 119.85409 151.78724 127.44336 143.48047 C 135.03263 135.17369 146.11648 123.14427 152.07422 116.74805 C 158.03195 110.35183 162.8178 105.10082 162.70898 105.07813 C 162.60016 105.0554 156.39407 104.81347 148.91797 104.54102 C 141.44188 104.26858 134.84905 103.8501 134.26758 103.61133 C 133.60198 103.33801 133.21094 102.52401 133.21094 101.41602 C 133.21094 99.905987 133.79024 99.283921 137.28906 97.025391 C 149.2325 89.315759 277.6554 25.370393 303.84766 14.091797 C 306.43831 12.976238 308.56273 12.35959 310.17773 12.244141 z M 27.488281 103.91016 L 62.527344 103.91016 L 97.566406 103.91016 L 97.566406 139.00586 L 97.566406 174.09961 L 74.189453 198.36133 C 46.013922 227.60163 39.061494 234.58676 34.833984 237.9082 C 28.898126 242.57185 28.508561 241.89457 28 226.00586 C 27.780905 219.16083 27.576252 188.88797 27.544922 158.73438 L 27.488281 103.91016 z M 166.93164 180.1543 C 167.46658 180.25732 168.87636 181.62725 170.06445 183.19922 C 176.29647 191.44479 206.47101 242.12826 236.51563 294.81445 C 248.92065 316.5679 253.19998 324.73131 253.69727 327.58984 L 254.0918 329.85547 L 222.80078 329.72266 C 205.59071 329.65047 186.2525 329.4485 179.82813 329.27148 L 168.14844 328.94922 L 154.25977 299.04492 C 138.18097 264.42154 130.19697 246.90197 125.53711 236.0293 L 122.2207 228.29297 L 123.70703 226.0625 C 125.75833 222.98165 138.88423 207.78746 150.12695 195.48047 C 159.96164 184.71481 165.3063 179.84129 166.93164 180.1543 z M 94.955078 257.125 C 95.330963 257.15293 95.694041 257.31978 96.125 257.63477 C 97.217224 258.43307 97.27283 259.98577 97.447266 294.16211 L 97.628906 329.85547 L 70.5625 329.74805 C 37.102877 329.61553 28.861998 329.28485 28.078125 328.04297 C 27.763532 327.54456 27.503147 326.98103 27.498047 326.79102 C 27.480577 326.13862 35.461668 316.85615 44.601563 306.89844 C 55.488097 295.03779 91.885841 258.39077 93.707031 257.45703 C 94.189051 257.20989 94.579194 257.09707 94.955078 257.125 z "
     transform="scale(0.75)" />
  <path
     style="fill:none;stroke-width:0.60413"
     d="M 0.3020649,170.66667 V 0 H 170.66667 341.03127 V 170.66667 341.33333 H 170.66667 0.3020649 Z M 97.447072,294.16215 c -0.174436,-34.17637 -0.230632,-35.72813 -1.322857,-36.52644 -0.861918,-0.62998 -1.452479,-0.67387 -2.416519,-0.17959 -1.821192,0.93374 -38.220386,37.58116 -49.106931,49.44182 -9.139904,9.95772 -17.121078,19.24047 -17.103608,19.89287 0.0051,0.19001 0.266645,0.75326 0.581238,1.25167 0.783874,1.24188 9.025245,1.57266 42.484901,1.70518 l 27.065951,0.10721 z m 156.250138,33.42723 c -0.49729,-2.85854 -4.77606,-11.02057 -17.1811,-32.77404 -30.04465,-52.68625 -60.22054,-103.37096 -66.45256,-111.61654 -1.18809,-1.57197 -2.59784,-2.94241 -3.13278,-3.04543 -1.62534,-0.31301 -6.96982,4.56168 -16.80452,15.32735 -11.24273,12.307 -24.36855,27.50014 -26.41985,30.58099 l -1.48586,2.23162 3.31576,7.73653 c 4.65987,10.87268 12.64531,28.39097 28.72412,63.01439 l 13.88734,29.90442 11.68069,0.32184 c 6.42438,0.17702 25.76169,0.38091 42.97178,0.4531 l 31.2911,0.13126 z M 31.277972,315.96813 c 2.515726,-0.0194 12.889986,-10.92947 172.345298,-181.24719 31.57462,-33.72554 65.94025,-70.426427 76.36807,-81.557518 30.01821,-32.042707 34.76486,-37.68188 33.46503,-39.757552 -1.1153,-1.781003 -4.42702,-1.544264 -9.60834,0.686856 -26.19228,11.278607 -154.61608,75.22236 -166.55953,82.931999 -3.49883,2.258533 -4.07788,2.882225 -4.07788,4.392255 0,1.108 0.39163,1.92076 1.05723,2.19408 0.58147,0.23877 7.17404,0.65705 14.65014,0.92949 7.47611,0.27245 13.68196,0.51397 13.79078,0.5367 0.10882,0.0227 -4.67665,5.27461 -10.63439,11.67083 -5.95774,6.39623 -17.04166,18.42596 -24.63094,26.73275 -7.58928,8.30678 -21.17845,23.12306 -30.198153,32.92507 -9.019694,9.80201 -28.404987,30.96915 -43.078416,47.0381 l -26.678965,29.21628 v 32.02233 32.02232 l 1.359292,-0.36427 c 0.74761,-0.20035 1.841459,-0.36799 2.430774,-0.37253 z m 3.556274,-78.059 c 4.227514,-3.32145 11.179792,-10.30778 39.355351,-39.54811 l 23.377365,-24.2608 V 139.00527 103.91032 H 62.527434 27.487906 l 0.05697,54.82478 c 0.03133,30.15363 0.236227,60.42526 0.455322,67.2703 0.508562,15.88873 0.898186,16.56738 6.83405,11.90373 z"
     id="path440"
     transform="scale(0.75)" />
  <path
     id="path442"
     style="fill:none;stroke-width:0.60413"
     d="M 0.30273438 0 L 0.30273438 170.66602 L 0.30273438 341.33398 L 170.66602 341.33398 L 341.03125 341.33398 L 341.03125 170.66602 L 341.03125 0 L 170.66602 0 L 0.30273438 0 z M 310.17773 12.244141 C 311.79274 12.128691 312.89938 12.515749 313.45703 13.40625 C 314.75686 15.48192 310.01037 21.121388 279.99219 53.164063 C 269.56438 64.295142 235.19764 100.9952 203.62305 134.7207 C 44.167894 305.03825 33.793067 315.94935 31.277344 315.96875 C 30.688029 315.97329 29.595266 316.13949 28.847656 316.33984 L 27.488281 316.70508 L 27.488281 284.68164 L 27.488281 252.66016 L 54.166016 223.44336 C 68.83943 207.37443 88.226409 186.20825 97.246094 176.40625 C 106.26579 166.60425 119.85409 151.78724 127.44336 143.48047 C 135.03263 135.17369 146.11648 123.14427 152.07422 116.74805 C 158.03195 110.35183 162.8178 105.10082 162.70898 105.07813 C 162.60016 105.0554 156.39407 104.81347 148.91797 104.54102 C 141.44188 104.26858 134.84905 103.8501 134.26758 103.61133 C 133.60198 103.33801 133.21094 102.52401 133.21094 101.41602 C 133.21094 99.905987 133.79024 99.283921 137.28906 97.025391 C 149.2325 89.315759 277.6554 25.370393 303.84766 14.091797 C 306.43831 12.976238 308.56273 12.35959 310.17773 12.244141 z M 27.488281 103.91016 L 62.527344 103.91016 L 97.566406 103.91016 L 97.566406 139.00586 L 97.566406 174.09961 L 74.189453 198.36133 C 46.013922 227.60163 39.061494 234.58676 34.833984 237.9082 C 28.898126 242.57185 28.508561 241.89457 28 226.00586 C 27.780905 219.16083 27.576252 188.88797 27.544922 158.73438 L 27.488281 103.91016 z M 166.93164 180.1543 C 167.46658 180.25732 168.87636 181.62725 170.06445 183.19922 C 176.29647 191.44479 206.47101 242.12826 236.51563 294.81445 C 248.92065 316.5679 253.19998 324.73131 253.69727 327.58984 L 254.0918 329.85547 L 222.80078 329.72266 C 205.59071 329.65047 186.2525 329.4485 179.82813 329.27148 L 168.14844 328.94922 L 154.25977 299.04492 C 138.18097 264.42154 130.19697 246.90197 125.53711 236.0293 L 122.2207 228.29297 L 123.70703 226.0625 C 125.75833 222.98165 138.88423 207.78746 150.12695 195.48047 C 159.96164 184.71481 165.3063 179.84129 166.93164 180.1543 z M 94.955078 257.125 C 95.330963 257.15293 95.694041 257.31978 96.125 257.63477 C 97.217224 258.43307 97.27283 259.98577 97.447266 294.16211 L 97.628906 329.85547 L 70.5625 329.74805 C 37.102877 329.61553 28.861998 329.28485 28.078125 328.04297 C 27.763532 327.54456 27.503147 326.98103 27.498047 326.79102 C 27.480577 326.13862 35.461668 316.85615 44.601563 306.89844 C 55.488097 295.03779 91.885841 258.39077 93.707031 257.45703 C 94.189051 257.20989 94.579194 257.09707 94.955078 257.125 z "
     transform="scale(0.75)" />
  <path
     id="path516"
     style="fill:#ffffff;stroke-width:0.60413"
     d="M 28.091797 104.51367 L 28.130859 159.33984 C 28.169018 212.82877 28.601593 237.6151 29.521484 239.10352 C 30.185335 240.17764 30.648157 240.04393 33.589844 237.92383 C 37.350375 235.21358 46.992396 225.57554 73.679688 197.85156 L 96.939453 173.6875 L 96.951172 139.10156 L 96.962891 104.51367 L 96.773438 104.51367 L 62.572266 104.51367 L 62.527344 104.51367 L 28.369141 104.51367 L 28.091797 104.51367 z "
     transform="scale(0.75)" />
</svg>
